<?xml version="1.0" encoding="utf-8"?>
<!-- Generator: Adobe Illustrator 27.2.0, SVG Export Plug-In . SVG Version: 6.00 Build 0)  -->
<svg version="1.1" id="Layer_1" xmlns="http://www.w3.org/2000/svg" xmlns:xlink="http://www.w3.org/1999/xlink" x="0px" y="0px"
	 width="227.1px" height="47.1px" viewBox="0 0 227.1 47.1" style="enable-background:new 0 0 227.1 47.1;" xml:space="preserve">
<style type="text/css">
	.st0{fill:#FFFFFF;}
	.st1{fill:#4471FF;}
	.st2{opacity:0.5;fill:#FFFFFF;}
	.st3{fill:#FFFFFF;}
</style>
<g>
	<g>
		<path class="st0" d="M58.7,18.8h3.1v0.6c0.6-0.3,1.1-0.6,1.5-0.7c0.4-0.1,0.9-0.2,1.3-0.2c0.5,0,1.1,0.1,1.6,0.3
			c0.5,0.2,0.9,0.4,1.2,0.8c0.7-0.4,1.4-0.6,2-0.8c0.6-0.2,1.3-0.3,1.9-0.3c1.4,0,2.4,0.4,3,1.3c0.6,0.9,0.9,2.3,0.9,4.2v6.2h-3.1
			v-6.1c0-1-0.1-1.8-0.3-2.2c-0.2-0.4-0.7-0.7-1.3-0.7c-0.4,0-1,0.1-1.8,0.3l-0.3,0.1c0.1,1,0.1,1.9,0.1,2.6v6h-3.1v-5.9
			c0-0.8,0-1.5-0.1-1.9c-0.1-0.4-0.2-0.7-0.5-0.9c-0.2-0.2-0.6-0.3-1.1-0.3c-0.5,0-1.1,0.1-1.7,0.3l-0.3,0.1v8.6h-3.1V18.8z"/>
		<path class="st0" d="M81.8,30.3h-2.2l-2.8-11.5h3l2.1,8.9h0.5l2.1-8.9h3l-4,16.3h-3L81.8,30.3z"/>
		<path class="st0" d="M89.8,30L89,29.9l0.3-2.5c2.1,0.3,3.6,0.4,4.7,0.4c1.6,0,2.4-0.7,2.4-2c0-0.6-0.2-1-0.6-1.2
			c-0.4-0.3-1.1-0.5-2.2-0.8c-1.2-0.3-2.2-0.7-2.9-1.1c-0.7-0.4-1.2-0.9-1.5-1.5c-0.3-0.6-0.5-1.3-0.5-2.1c0-1.5,0.5-2.7,1.4-3.5
			c0.9-0.8,2.2-1.2,3.9-1.2c0.7,0,1.3,0,2,0.1c0.7,0.1,1.7,0.2,3.1,0.5L99,17.5c-2.1-0.2-3.6-0.4-4.6-0.4c-1.7,0-2.5,0.6-2.5,1.7
			c0,0.4,0.1,0.7,0.4,0.9s0.6,0.4,1,0.6c0.4,0.2,1.1,0.4,2.1,0.7c1.1,0.3,1.9,0.7,2.5,1.1c0.6,0.4,1,0.8,1.3,1.4
			c0.3,0.5,0.4,1.2,0.4,2.1c0,1.6-0.5,2.8-1.5,3.7c-1,0.9-2.3,1.3-3.9,1.3C93,30.6,91.5,30.4,89.8,30z"/>
		<path class="st0" d="M103.6,30.2c-0.5-0.3-0.8-0.7-1.1-1.4c-0.2-0.6-0.3-1.5-0.3-2.6v-4.8h-1.4v-2.6h1.4v-3.2h3.1v3.2h2.8v2.6
			h-2.8v4.7c0,0.6,0.1,1,0.2,1.3c0.1,0.3,0.4,0.4,0.8,0.4l1.7,0l0.1,2.5c-0.6,0.1-1.1,0.2-1.4,0.3s-0.7,0.1-1,0.1
			C104.8,30.6,104.1,30.5,103.6,30.2z"/>
		<path class="st0" d="M109.4,26.8c0-1.2,0.3-2.1,1-2.6c0.6-0.5,1.7-0.8,3.1-0.9l2.5-0.2v-0.7c0-0.5-0.1-0.8-0.3-1
			c-0.2-0.2-0.6-0.3-1-0.3c-0.5,0-1.2,0-2.1,0.1c-0.9,0-1.6,0.1-2.2,0.1l-0.1-2.1c1.7-0.4,3.2-0.7,4.7-0.7c1.5,0,2.5,0.3,3.2,0.9
			c0.7,0.6,1,1.6,1,2.9v4.8c0,0.4,0.1,0.6,0.2,0.8c0.1,0.1,0.3,0.2,0.6,0.3l-0.1,2.3c-0.8,0-1.4-0.1-1.9-0.2
			c-0.5-0.1-0.9-0.3-1.4-0.6c-1.1,0.5-2.2,0.8-3.4,0.8C110.6,30.6,109.4,29.3,109.4,26.8z M115.5,27.8l0.3-0.1v-2.5l-2.1,0.2
			c-0.9,0.1-1.3,0.5-1.3,1.4s0.4,1.3,1.1,1.3C114.2,28.1,114.8,28,115.5,27.8z"/>
		<path class="st0" d="M121.9,18.8h3.1v0.6c0.6-0.3,1.1-0.6,1.6-0.7c0.5-0.1,0.9-0.2,1.5-0.2c1.4,0,2.4,0.5,3,1.4
			c0.6,0.9,0.9,2.3,0.9,4.2v6.2h-3.1v-6.1c0-1.1-0.1-1.8-0.4-2.2c-0.3-0.4-0.7-0.6-1.4-0.6c-0.5,0-1.1,0.1-1.7,0.3l-0.3,0.1v8.6
			h-3.1V18.8z"/>
		<path class="st0" d="M135,29.1c-0.7-1-1-2.4-1-4.4c0-2.1,0.4-3.7,1.1-4.7c0.8-1,1.9-1.5,3.5-1.5c0.6,0,1.4,0.1,2.6,0.3v-4.6h3.1
			v16.1h-3.1v-0.5c-0.6,0.3-1.2,0.5-1.6,0.6c-0.4,0.1-0.9,0.2-1.3,0.2C136.8,30.6,135.7,30.1,135,29.1z M140.9,27.6l0.3-0.1v-6
			c-0.8-0.2-1.5-0.2-2-0.2c-0.7,0-1.3,0.3-1.6,0.8c-0.3,0.5-0.5,1.4-0.5,2.7c0,1.1,0.1,2,0.4,2.4c0.3,0.5,0.8,0.7,1.5,0.7
			C139.6,27.8,140.2,27.7,140.9,27.6z"/>
		<path class="st1" d="M152.5,14.7h5.7c3.7,0,5.6,1.8,5.6,5.4c0,1.8-0.5,3.2-1.4,4.2c-0.9,1-2.3,1.4-4.1,1.4h-2.6v4.5h-3.2V14.7z
			 M158.2,23.1c1.6,0,2.4-1,2.4-2.9c0-0.9-0.2-1.6-0.6-2.1c-0.4-0.4-1-0.6-1.8-0.6h-2.6v5.7H158.2z"/>
		<path class="st1" d="M165.8,18.8h3.1v1.2c1.3-0.8,2.5-1.3,3.7-1.5v3.1c-1.1,0.2-2.2,0.5-3.2,0.8l-0.5,0.2v7.7h-3.1V18.8z"/>
		<path class="st1" d="M175.1,29c-0.9-1-1.3-2.5-1.3-4.5c0-1.9,0.4-3.4,1.3-4.4c0.9-1,2.2-1.6,3.9-1.6s3,0.5,3.9,1.6
			c0.9,1,1.3,2.5,1.3,4.4c0,1.9-0.4,3.4-1.3,4.5c-0.9,1-2.2,1.6-3.9,1.6S176,30.1,175.1,29z M180.6,27.2c0.4-0.5,0.5-1.4,0.5-2.6
			c0-1.2-0.2-2.1-0.5-2.6c-0.4-0.5-0.9-0.8-1.6-0.8c-0.7,0-1.3,0.3-1.6,0.8c-0.4,0.5-0.5,1.4-0.5,2.6c0,1.2,0.2,2.1,0.5,2.6
			c0.4,0.5,0.9,0.8,1.6,0.8C179.7,28,180.3,27.7,180.6,27.2z"/>
		<path class="st1" d="M184.3,33.3c0.7-0.5,1.2-0.8,1.5-1.1c0.3-0.3,0.5-0.6,0.6-1c0.1-0.3,0.1-0.8,0.1-1.4V18.8h3.1v11
			c0,1.1-0.1,1.9-0.3,2.6c-0.2,0.6-0.6,1.2-1.2,1.7c-0.6,0.5-1.4,1-2.6,1.6L184.3,33.3z M186.6,14.3h3.1v3.1h-3.1V14.3z"/>
		<path class="st1" d="M193,29.2c-0.8-0.9-1.2-2.4-1.2-4.4c0-2.1,0.4-3.7,1.3-4.7c0.8-1,2.1-1.6,3.9-1.6c1.6,0,2.9,0.4,3.7,1.3
			c0.8,0.9,1.3,2.2,1.3,3.9l-0.2,2.1h-6.8c0,0.5,0.1,0.9,0.3,1.2c0.2,0.3,0.4,0.5,0.8,0.6c0.4,0.1,0.9,0.2,1.5,0.2
			c0.5,0,1.1,0,1.8,0c0.7,0,1.2-0.1,1.5-0.1l0.6-0.1l0,2.3c-1.7,0.4-3.3,0.6-4.6,0.6C195.1,30.6,193.8,30.1,193,29.2z M198.9,23.5
			c0-0.9-0.1-1.6-0.4-1.9c-0.3-0.4-0.8-0.5-1.5-0.5c-0.7,0-1.3,0.2-1.6,0.6s-0.5,1-0.5,1.9H198.9z"/>
		<path class="st1" d="M204.7,29.2c-0.7-1-1.1-2.5-1.1-4.6c0-2.1,0.4-3.7,1.1-4.6c0.8-0.9,2-1.4,3.7-1.4c0.4,0,0.9,0,1.5,0.1
			c0.5,0.1,1.3,0.2,2.2,0.4l-0.1,2.4c-1.3-0.1-2.2-0.2-2.7-0.2c-0.7,0-1.2,0.1-1.6,0.3c-0.4,0.2-0.6,0.5-0.8,1
			c-0.1,0.5-0.2,1.1-0.2,2c0,0.9,0.1,1.5,0.2,2c0.1,0.5,0.4,0.8,0.8,1c0.4,0.2,0.9,0.3,1.6,0.3l2.7-0.2l0.1,2.5
			c-1.6,0.3-2.9,0.5-3.8,0.5C206.6,30.6,205.4,30.1,204.7,29.2z"/>
		<path class="st1" d="M216.2,30.2c-0.5-0.3-0.8-0.7-1.1-1.4c-0.2-0.6-0.3-1.5-0.3-2.6v-4.8h-1.4v-2.6h1.4v-3.2h3.1v3.2h2.8v2.6
			h-2.8v4.7c0,0.6,0.1,1,0.2,1.3c0.1,0.3,0.4,0.4,0.8,0.4l1.7,0l0.1,2.5c-0.6,0.1-1.1,0.2-1.4,0.3c-0.3,0-0.7,0.1-1,0.1
			C217.4,30.6,216.7,30.5,216.2,30.2z"/>
	</g>
	<g>
		<path class="st1" d="M50,47.1H0V0h41c4.9,0,9,4,9,9V47.1z"/>
		<g>
			<path class="st2" d="M23.1,34.6H12.2c-0.6,0-1.1-0.5-1.1-1.1V17.8c0-0.6,0.5-1.1,1.1-1.1h10.9c0.6,0,1.1,0.5,1.1,1.1v15.8
				C24.2,34.2,23.7,34.6,23.1,34.6z"/>
			<path class="st3" d="M24.2,34.6L14,30.8c-0.2-0.1-0.4-0.3-0.4-0.6V13.6c0-0.4,0.4-0.7,0.7-0.6l9.8,3.7V34.6z"/>
			<path class="st2" d="M27.2,34.6h10.9c0.6,0,1.1-0.5,1.1-1.1V17.8c0-0.6-0.5-1.1-1.1-1.1H27.2c-0.6,0-1.1,0.5-1.1,1.1v15.8
				C26.1,34.2,26.6,34.6,27.2,34.6z"/>
			<path class="st3" d="M26.1,34.6l10.2-3.9c0.2-0.1,0.4-0.3,0.4-0.6V13.6c0-0.4-0.4-0.7-0.7-0.6l-9.8,3.7V34.6z"/>
		</g>
	</g>
</g>
</svg>
