<?xml version="1.0" encoding="utf-8"?>
<!-- Generator: Adobe Illustrator 27.7.0, SVG Export Plug-In . SVG Version: 6.00 Build 0)  -->
<svg version="1.1" id="Layer_1" xmlns="http://www.w3.org/2000/svg" xmlns:xlink="http://www.w3.org/1999/xlink" x="0px" y="0px"
	 width="240px" height="50px" viewBox="0 0 240 50" style="enable-background:new 0 0 240 50;" xml:space="preserve">
<style type="text/css">
	.st0{fill:#121F29;}
	.st1{fill:#4471FF;}
	.st2{opacity:0.5;fill:#4471FF;}
</style>
<g>
	<g>
		<path class="st0" d="M62.4,20.2h3.3v0.7c0.6-0.3,1.1-0.6,1.6-0.7c0.4-0.2,0.9-0.2,1.4-0.2c0.6,0,1.1,0.1,1.7,0.3
			c0.5,0.2,1,0.5,1.3,0.9c0.8-0.4,1.5-0.7,2.2-0.9c0.7-0.2,1.4-0.3,2.1-0.3c1.5,0,2.6,0.5,3.2,1.4c0.6,0.9,1,2.4,1,4.5v6.6h-3.3
			v-6.5c0-1.1-0.1-1.9-0.4-2.4c-0.2-0.5-0.7-0.7-1.4-0.7c-0.5,0-1.1,0.1-1.9,0.3l-0.4,0.1c0.1,1.1,0.1,2,0.1,2.8v6.3h-3.3v-6.3
			c0-0.9,0-1.6-0.1-2c-0.1-0.5-0.3-0.8-0.5-1c-0.3-0.2-0.6-0.3-1.1-0.3c-0.5,0-1.1,0.1-1.8,0.3l-0.3,0.1v9.2h-3.3V20.2z"/>
		<path class="st0" d="M87,32.4h-2.3l-3-12.2h3.2l2.2,9.5h0.6l2.2-9.5h3.2l-4.3,17.4h-3.2L87,32.4z"/>
		<path class="st0" d="M95.5,32.1l-0.9-0.2l0.3-2.6c2.2,0.3,3.9,0.4,5,0.4c1.7,0,2.6-0.7,2.6-2.2c0-0.6-0.2-1-0.7-1.3
			c-0.5-0.3-1.2-0.6-2.3-0.9c-1.3-0.4-2.3-0.8-3-1.2c-0.7-0.4-1.3-1-1.6-1.6c-0.3-0.6-0.5-1.4-0.5-2.3c0-1.6,0.5-2.9,1.5-3.7
			c1-0.8,2.4-1.2,4.2-1.2c0.7,0,1.4,0,2.2,0.1c0.8,0.1,1.9,0.3,3.3,0.5l-0.3,2.7c-2.2-0.3-3.9-0.4-4.9-0.4c-1.8,0-2.7,0.6-2.7,1.8
			c0,0.4,0.1,0.7,0.4,1s0.7,0.5,1.1,0.6c0.4,0.2,1.2,0.4,2.2,0.7c1.1,0.4,2,0.7,2.6,1.1c0.6,0.4,1.1,0.9,1.3,1.5
			c0.3,0.6,0.4,1.3,0.4,2.2c0,1.7-0.5,3-1.6,3.9c-1,0.9-2.4,1.4-4.2,1.4C98.9,32.7,97.3,32.5,95.5,32.1z"/>
		<path class="st0" d="M110.2,32.3c-0.5-0.3-0.9-0.8-1.1-1.4c-0.2-0.7-0.3-1.6-0.3-2.8V23h-1.4v-2.8h1.4v-3.4h3.3v3.4h3V23h-3v5
			c0,0.6,0.1,1.1,0.2,1.4c0.1,0.3,0.4,0.4,0.9,0.4l1.9,0l0.1,2.6c-0.7,0.1-1.2,0.2-1.5,0.3s-0.7,0.1-1.1,0.1
			C111.4,32.7,110.7,32.5,110.2,32.3z"/>
		<path class="st0" d="M116.3,28.7c0-1.3,0.3-2.2,1-2.8c0.7-0.6,1.8-0.9,3.3-1l2.6-0.2V24c0-0.5-0.1-0.8-0.3-1
			c-0.2-0.2-0.6-0.3-1.1-0.3c-0.5,0-1.3,0-2.2,0.1c-0.9,0-1.7,0.1-2.4,0.1l-0.1-2.3c1.8-0.5,3.4-0.7,5-0.7c1.6,0,2.7,0.3,3.4,1
			c0.7,0.7,1,1.7,1,3.1v5.1c0,0.4,0.1,0.7,0.2,0.8c0.1,0.1,0.3,0.3,0.6,0.3l-0.1,2.5c-0.8,0-1.5-0.1-2-0.2s-1-0.3-1.5-0.7
			c-1.2,0.6-2.4,0.9-3.6,0.9C117.6,32.7,116.3,31.4,116.3,28.7z M122.9,29.7l0.4-0.1V27l-2.2,0.2c-0.9,0.1-1.4,0.6-1.4,1.5
			c0,0.9,0.4,1.3,1.2,1.3C121.5,30,122.1,29.9,122.9,29.7z"/>
		<path class="st0" d="M129.7,20.2h3.3v0.7c0.6-0.4,1.2-0.6,1.7-0.8c0.5-0.1,1-0.2,1.6-0.2c1.5,0,2.6,0.5,3.2,1.4c0.6,1,1,2.4,1,4.5
			v6.6H137v-6.5c0-1.1-0.1-1.9-0.4-2.4c-0.3-0.5-0.8-0.7-1.5-0.7c-0.5,0-1.2,0.1-1.8,0.3l-0.3,0.1v9.2h-3.3V20.2z"/>
		<path class="st0" d="M143.7,31.1c-0.7-1-1.1-2.6-1.1-4.7c0-2.3,0.4-4,1.2-5c0.8-1.1,2.1-1.6,3.7-1.6c0.6,0,1.5,0.1,2.8,0.3v-4.9
			h3.3v17.1h-3.3v-0.5c-0.7,0.3-1.2,0.5-1.7,0.6c-0.5,0.1-0.9,0.2-1.4,0.2C145.6,32.7,144.4,32.2,143.7,31.1z M150,29.5l0.3-0.1V23
			c-0.9-0.2-1.6-0.2-2.2-0.2c-0.8,0-1.3,0.3-1.7,0.8c-0.3,0.6-0.5,1.5-0.5,2.8c0,1.2,0.2,2.1,0.5,2.6c0.3,0.5,0.8,0.8,1.6,0.8
			C148.6,29.8,149.2,29.7,150,29.5z"/>
		<path class="st1" d="M162.3,15.8h6.1c4,0,5.9,1.9,5.9,5.8c0,2-0.5,3.5-1.5,4.5c-1,1-2.5,1.5-4.4,1.5h-2.7v4.8h-3.4V15.8z
			 M168.4,24.7c1.7,0,2.5-1,2.5-3.1c0-1-0.2-1.7-0.6-2.2c-0.4-0.5-1-0.7-1.9-0.7h-2.7v6H168.4z"/>
		<path class="st1" d="M176.4,20.2h3.3v1.3c1.4-0.8,2.7-1.3,3.9-1.6v3.3c-1.2,0.2-2.4,0.5-3.4,0.9l-0.5,0.2v8.2h-3.3V20.2z"/>
		<path class="st1" d="M186.3,31c-1-1.1-1.4-2.7-1.4-4.8c0-2,0.5-3.6,1.4-4.7c1-1.1,2.4-1.7,4.2-1.7c1.8,0,3.2,0.6,4.2,1.7
			c1,1.1,1.4,2.7,1.4,4.7c0,2.1-0.5,3.6-1.4,4.8c-1,1.1-2.4,1.7-4.2,1.7C188.7,32.7,187.3,32.1,186.3,31z M192.3,29
			c0.4-0.6,0.6-1.5,0.6-2.8c0-1.3-0.2-2.2-0.6-2.8c-0.4-0.6-1-0.8-1.7-0.8c-0.8,0-1.4,0.3-1.7,0.8c-0.4,0.6-0.6,1.5-0.6,2.8
			c0,1.3,0.2,2.2,0.6,2.8c0.4,0.6,1,0.9,1.7,0.9C191.3,29.9,191.9,29.6,192.3,29z"/>
		<path class="st1" d="M196.2,35.6c0.7-0.5,1.3-0.9,1.6-1.2c0.3-0.3,0.5-0.7,0.6-1c0.1-0.4,0.2-0.9,0.2-1.5V20.2h3.3v11.7
			c0,1.1-0.1,2.1-0.4,2.7c-0.2,0.7-0.7,1.3-1.3,1.8c-0.6,0.5-1.5,1.1-2.7,1.7L196.2,35.6z M198.6,15.3h3.3v3.3h-3.3V15.3z"/>
		<path class="st1" d="M205.4,31.3c-0.8-1-1.3-2.5-1.3-4.7c0-2.3,0.4-3.9,1.3-5c0.9-1.1,2.3-1.7,4.1-1.7c1.7,0,3,0.5,3.9,1.4
			c0.9,0.9,1.3,2.3,1.3,4.2l-0.2,2.3h-7.2c0,0.6,0.1,1,0.3,1.3c0.2,0.3,0.4,0.5,0.8,0.6c0.4,0.1,0.9,0.2,1.6,0.2c0.5,0,1.2,0,1.9,0
			c0.8,0,1.3-0.1,1.6-0.1l0.7-0.1l0,2.4c-1.8,0.5-3.5,0.7-4.9,0.7C207.7,32.7,206.3,32.2,205.4,31.3z M211.7,25.2c0-1-0.2-1.7-0.5-2
			c-0.3-0.4-0.8-0.6-1.6-0.6c-0.8,0-1.3,0.2-1.7,0.6c-0.3,0.4-0.5,1.1-0.5,2H211.7z"/>
		<path class="st1" d="M217.9,31.2c-0.8-1-1.2-2.6-1.2-4.9c0-2.3,0.4-3.9,1.2-4.9c0.8-1,2.1-1.5,4-1.5c0.5,0,1,0,1.6,0.1
			c0.6,0.1,1.3,0.2,2.3,0.4l-0.1,2.6c-1.4-0.1-2.4-0.2-2.9-0.2c-0.8,0-1.3,0.1-1.7,0.3c-0.4,0.2-0.7,0.6-0.8,1
			c-0.2,0.5-0.2,1.2-0.2,2.1c0,0.9,0.1,1.6,0.2,2.1c0.2,0.5,0.4,0.8,0.8,1.1c0.4,0.2,1,0.3,1.8,0.3l2.8-0.2l0.1,2.6
			c-1.7,0.3-3.1,0.5-4.1,0.5C219.9,32.7,218.7,32.2,217.9,31.2z"/>
		<path class="st1" d="M230.2,32.3c-0.5-0.3-0.9-0.8-1.1-1.4c-0.2-0.7-0.3-1.6-0.3-2.8V23h-1.4v-2.8h1.4v-3.4h3.3v3.4h3V23h-3v5
			c0,0.6,0.1,1.1,0.2,1.4c0.1,0.3,0.4,0.4,0.9,0.4l1.9,0l0.1,2.6c-0.7,0.1-1.2,0.2-1.5,0.3c-0.4,0-0.7,0.1-1.1,0.1
			C231.4,32.7,230.7,32.5,230.2,32.3z"/>
	</g>
	<g>
		<g>
			<path class="st2" d="M22.4,40.3H6.1c-0.6,0-1.1-0.5-1.1-1.1V16c0-0.6,0.5-1.1,1.1-1.1h16.3c0.6,0,1.1,0.5,1.1,1.1v23.3
				C23.5,39.8,23,40.3,22.4,40.3z"/>
			<path class="st1" d="M23.5,40.3L9,34.8c-0.3-0.1-0.5-0.4-0.5-0.8V10.5c0-0.6,0.5-1,1.1-0.8L23.5,15V40.3z"/>
			<path class="st2" d="M27.2,40.3h16.3c0.6,0,1.1-0.5,1.1-1.1V16c0-0.6-0.5-1.1-1.1-1.1H27.2c-0.6,0-1.1,0.5-1.1,1.1v23.3
				C26.2,39.8,26.7,40.3,27.2,40.3z"/>
			<path class="st1" d="M26.2,40.3l14.5-5.5c0.3-0.1,0.5-0.4,0.5-0.8V10.5c0-0.6-0.5-1-1.1-0.8L26.2,15V40.3z"/>
		</g>
	</g>
</g>
</svg>
